<svg xmlns="http://www.w3.org/2000/svg" version="1.1" xmlns:xlink="http://www.w3.org/1999/xlink" xmlns:svgjs="http://svgjs.dev/svgjs" width="1440" height="560" preserveAspectRatio="none" viewBox="0 0 1440 560"><g mask="url(&quot;#SvgjsMask1106&quot;)" fill="none"><rect width="1440" height="560" x="0" y="0" fill="url(&quot;#SvgjsLinearGradient1107&quot;)"></rect><path d="M47.82 393.87L112.77 431.37L112.77 506.37L47.82 543.87L-17.13 506.37L-17.13 431.37zM177.73 -56.13L242.68 -18.63L242.68 56.37L177.73 93.87L112.77 56.37L112.77 -18.63zM242.68 56.37L307.63 93.87L307.63 168.87L242.68 206.37L177.73 168.87L177.73 93.87zM242.68 281.37L307.63 318.87L307.63 393.87L242.68 431.37L177.73 393.87L177.73 318.87zM242.68 506.37L307.63 543.87L307.63 618.87L242.68 656.37L177.73 618.87L177.73 543.87zM307.63 168.87L372.59 206.37L372.59 281.37L307.63 318.87L242.68 281.37L242.68 206.37zM307.63 393.87L372.59 431.37L372.59 506.37L307.63 543.87L242.68 506.37L242.68 431.37zM437.54 393.87L502.5 431.37L502.5 506.37L437.54 543.87L372.59 506.37L372.59 431.37zM567.45 -56.13L632.4 -18.63L632.4 56.37L567.45 93.87L502.5 56.37L502.5 -18.63zM632.4 281.37L697.36 318.87L697.36 393.87L632.4 431.37L567.45 393.87L567.45 318.87zM827.26 -56.13L892.22 -18.63L892.22 56.37L827.26 93.87L762.31 56.37L762.31 -18.63zM892.22 56.37L957.17 93.87L957.17 168.87L892.22 206.37L827.26 168.87L827.26 93.87zM1022.13 506.37L1087.08 543.87L1087.08 618.87L1022.13 656.37L957.17 618.87L957.17 543.87zM1281.94 56.37L1346.89 93.87L1346.89 168.87L1281.94 206.37L1216.99 168.87L1216.99 93.87zM1216.99 393.87L1281.94 431.37L1281.94 506.37L1216.99 543.87L1152.03 506.37L1152.03 431.37zM1281.94 506.37L1346.89 543.87L1346.89 618.87L1281.94 656.37L1216.99 618.87L1216.99 543.87zM1541.76 56.37L1606.71 93.87L1606.71 168.87L1541.76 206.37L1476.8 168.87L1476.8 93.87z" stroke="#03305d" stroke-width="2"></path><path d="M40.32 393.87 a7.5 7.5 0 1 0 15 0 a7.5 7.5 0 1 0 -15 0zM105.27 431.37 a7.5 7.5 0 1 0 15 0 a7.5 7.5 0 1 0 -15 0zM105.27 506.37 a7.5 7.5 0 1 0 15 0 a7.5 7.5 0 1 0 -15 0zM40.32 543.87 a7.5 7.5 0 1 0 15 0 a7.5 7.5 0 1 0 -15 0zM-24.63 506.37 a7.5 7.5 0 1 0 15 0 a7.5 7.5 0 1 0 -15 0zM-24.63 431.37 a7.5 7.5 0 1 0 15 0 a7.5 7.5 0 1 0 -15 0zM170.23 -56.13 a7.5 7.5 0 1 0 15 0 a7.5 7.5 0 1 0 -15 0zM235.18 -18.63 a7.5 7.5 0 1 0 15 0 a7.5 7.5 0 1 0 -15 0zM235.18 56.37 a7.5 7.5 0 1 0 15 0 a7.5 7.5 0 1 0 -15 0zM170.23 93.87 a7.5 7.5 0 1 0 15 0 a7.5 7.5 0 1 0 -15 0zM105.27 56.37 a7.5 7.5 0 1 0 15 0 a7.5 7.5 0 1 0 -15 0zM105.27 -18.63 a7.5 7.5 0 1 0 15 0 a7.5 7.5 0 1 0 -15 0zM300.13 93.87 a7.5 7.5 0 1 0 15 0 a7.5 7.5 0 1 0 -15 0zM300.13 168.87 a7.5 7.5 0 1 0 15 0 a7.5 7.5 0 1 0 -15 0zM235.18 206.37 a7.5 7.5 0 1 0 15 0 a7.5 7.5 0 1 0 -15 0zM170.23 168.87 a7.5 7.5 0 1 0 15 0 a7.5 7.5 0 1 0 -15 0zM235.18 281.37 a7.5 7.5 0 1 0 15 0 a7.5 7.5 0 1 0 -15 0zM300.13 318.87 a7.5 7.5 0 1 0 15 0 a7.5 7.5 0 1 0 -15 0zM300.13 393.87 a7.5 7.5 0 1 0 15 0 a7.5 7.5 0 1 0 -15 0zM235.18 431.37 a7.5 7.5 0 1 0 15 0 a7.5 7.5 0 1 0 -15 0zM170.23 393.87 a7.5 7.5 0 1 0 15 0 a7.5 7.5 0 1 0 -15 0zM170.23 318.87 a7.5 7.5 0 1 0 15 0 a7.5 7.5 0 1 0 -15 0zM235.18 506.37 a7.5 7.5 0 1 0 15 0 a7.5 7.5 0 1 0 -15 0zM300.13 543.87 a7.5 7.5 0 1 0 15 0 a7.5 7.5 0 1 0 -15 0zM300.13 618.87 a7.5 7.5 0 1 0 15 0 a7.5 7.5 0 1 0 -15 0zM235.18 656.37 a7.5 7.5 0 1 0 15 0 a7.5 7.5 0 1 0 -15 0zM170.23 618.87 a7.5 7.5 0 1 0 15 0 a7.5 7.5 0 1 0 -15 0zM170.23 543.87 a7.5 7.5 0 1 0 15 0 a7.5 7.5 0 1 0 -15 0zM365.09 206.37 a7.5 7.5 0 1 0 15 0 a7.5 7.5 0 1 0 -15 0zM365.09 281.37 a7.5 7.5 0 1 0 15 0 a7.5 7.5 0 1 0 -15 0zM365.09 431.37 a7.5 7.5 0 1 0 15 0 a7.5 7.5 0 1 0 -15 0zM365.09 506.37 a7.5 7.5 0 1 0 15 0 a7.5 7.5 0 1 0 -15 0zM430.04 393.87 a7.5 7.5 0 1 0 15 0 a7.5 7.5 0 1 0 -15 0zM495 431.37 a7.5 7.5 0 1 0 15 0 a7.5 7.5 0 1 0 -15 0zM495 506.37 a7.5 7.5 0 1 0 15 0 a7.5 7.5 0 1 0 -15 0zM430.04 543.87 a7.5 7.5 0 1 0 15 0 a7.5 7.5 0 1 0 -15 0zM559.95 -56.13 a7.5 7.5 0 1 0 15 0 a7.5 7.5 0 1 0 -15 0zM624.9 -18.63 a7.5 7.5 0 1 0 15 0 a7.5 7.5 0 1 0 -15 0zM624.9 56.37 a7.5 7.5 0 1 0 15 0 a7.5 7.5 0 1 0 -15 0zM559.95 93.87 a7.5 7.5 0 1 0 15 0 a7.5 7.5 0 1 0 -15 0zM495 56.37 a7.5 7.5 0 1 0 15 0 a7.5 7.5 0 1 0 -15 0zM495 -18.63 a7.5 7.5 0 1 0 15 0 a7.5 7.5 0 1 0 -15 0zM624.9 281.37 a7.5 7.5 0 1 0 15 0 a7.5 7.5 0 1 0 -15 0zM689.86 318.87 a7.5 7.5 0 1 0 15 0 a7.5 7.5 0 1 0 -15 0zM689.86 393.87 a7.5 7.5 0 1 0 15 0 a7.5 7.5 0 1 0 -15 0zM624.9 431.37 a7.5 7.5 0 1 0 15 0 a7.5 7.5 0 1 0 -15 0zM559.95 393.87 a7.5 7.5 0 1 0 15 0 a7.5 7.5 0 1 0 -15 0zM559.95 318.87 a7.5 7.5 0 1 0 15 0 a7.5 7.5 0 1 0 -15 0zM819.76 -56.13 a7.5 7.5 0 1 0 15 0 a7.5 7.5 0 1 0 -15 0zM884.72 -18.63 a7.5 7.5 0 1 0 15 0 a7.5 7.5 0 1 0 -15 0zM884.72 56.37 a7.5 7.5 0 1 0 15 0 a7.5 7.5 0 1 0 -15 0zM819.76 93.87 a7.5 7.5 0 1 0 15 0 a7.5 7.5 0 1 0 -15 0zM754.81 56.37 a7.5 7.5 0 1 0 15 0 a7.5 7.5 0 1 0 -15 0zM754.81 -18.63 a7.5 7.5 0 1 0 15 0 a7.5 7.5 0 1 0 -15 0zM949.67 93.87 a7.5 7.5 0 1 0 15 0 a7.5 7.5 0 1 0 -15 0zM949.67 168.87 a7.5 7.5 0 1 0 15 0 a7.5 7.5 0 1 0 -15 0zM884.72 206.37 a7.5 7.5 0 1 0 15 0 a7.5 7.5 0 1 0 -15 0zM819.76 168.87 a7.5 7.5 0 1 0 15 0 a7.5 7.5 0 1 0 -15 0zM1014.63 506.37 a7.5 7.5 0 1 0 15 0 a7.5 7.5 0 1 0 -15 0zM1079.58 543.87 a7.5 7.5 0 1 0 15 0 a7.5 7.5 0 1 0 -15 0zM1079.58 618.87 a7.5 7.5 0 1 0 15 0 a7.5 7.5 0 1 0 -15 0zM1014.63 656.37 a7.5 7.5 0 1 0 15 0 a7.5 7.5 0 1 0 -15 0zM949.67 618.87 a7.5 7.5 0 1 0 15 0 a7.5 7.5 0 1 0 -15 0zM949.67 543.87 a7.5 7.5 0 1 0 15 0 a7.5 7.5 0 1 0 -15 0zM1274.44 56.37 a7.5 7.5 0 1 0 15 0 a7.5 7.5 0 1 0 -15 0zM1339.39 93.87 a7.5 7.5 0 1 0 15 0 a7.5 7.5 0 1 0 -15 0zM1339.39 168.87 a7.5 7.5 0 1 0 15 0 a7.5 7.5 0 1 0 -15 0zM1274.44 206.37 a7.5 7.5 0 1 0 15 0 a7.5 7.5 0 1 0 -15 0zM1209.49 168.87 a7.5 7.5 0 1 0 15 0 a7.5 7.5 0 1 0 -15 0zM1209.49 93.87 a7.5 7.5 0 1 0 15 0 a7.5 7.5 0 1 0 -15 0zM1209.49 393.87 a7.5 7.5 0 1 0 15 0 a7.5 7.5 0 1 0 -15 0zM1274.44 431.37 a7.5 7.5 0 1 0 15 0 a7.5 7.5 0 1 0 -15 0zM1274.44 506.37 a7.5 7.5 0 1 0 15 0 a7.5 7.5 0 1 0 -15 0zM1209.49 543.87 a7.5 7.5 0 1 0 15 0 a7.5 7.5 0 1 0 -15 0zM1144.53 506.37 a7.5 7.5 0 1 0 15 0 a7.5 7.5 0 1 0 -15 0zM1144.53 431.37 a7.5 7.5 0 1 0 15 0 a7.5 7.5 0 1 0 -15 0zM1339.39 543.87 a7.5 7.5 0 1 0 15 0 a7.5 7.5 0 1 0 -15 0zM1339.39 618.87 a7.5 7.5 0 1 0 15 0 a7.5 7.5 0 1 0 -15 0zM1274.44 656.37 a7.5 7.5 0 1 0 15 0 a7.5 7.5 0 1 0 -15 0zM1209.49 618.87 a7.5 7.5 0 1 0 15 0 a7.5 7.5 0 1 0 -15 0zM1534.26 56.37 a7.5 7.5 0 1 0 15 0 a7.5 7.5 0 1 0 -15 0zM1599.21 93.87 a7.5 7.5 0 1 0 15 0 a7.5 7.5 0 1 0 -15 0zM1599.21 168.87 a7.5 7.5 0 1 0 15 0 a7.5 7.5 0 1 0 -15 0zM1534.26 206.37 a7.5 7.5 0 1 0 15 0 a7.5 7.5 0 1 0 -15 0zM1469.3 168.87 a7.5 7.5 0 1 0 15 0 a7.5 7.5 0 1 0 -15 0zM1469.3 93.87 a7.5 7.5 0 1 0 15 0 a7.5 7.5 0 1 0 -15 0z" fill="#03305d"></path><path d="M26.15 299.09L69.45 324.09L69.45 374.09L26.15 399.09L-17.15 374.09L-17.15 324.09zM69.45 374.09L112.75 399.09L112.75 449.09L69.45 474.09L26.15 449.09L26.15 399.09zM26.15 449.09L69.45 474.09L69.45 524.09L26.15 549.09L-17.15 524.09L-17.15 474.09zM112.75 149.09L156.06 174.09L156.06 224.09L112.75 249.09L69.45 224.09L69.45 174.09zM156.06 224.09L199.36 249.09L199.36 299.09L156.06 324.09L112.75 299.09L112.75 249.09zM156.06 374.09L199.36 399.09L199.36 449.09L156.06 474.09L112.75 449.09L112.75 399.09zM199.36 -0.91L242.66 24.09L242.66 74.09L199.36 99.09L156.06 74.09L156.06 24.09zM242.66 224.09L285.96 249.09L285.96 299.09L242.66 324.09L199.36 299.09L199.36 249.09zM242.66 374.09L285.96 399.09L285.96 449.09L242.66 474.09L199.36 449.09L199.36 399.09zM199.36 449.09L242.66 474.09L242.66 524.09L199.36 549.09L156.06 524.09L156.06 474.09zM285.96 -0.91L329.27 24.09L329.27 74.09L285.96 99.09L242.66 74.09L242.66 24.09zM285.96 149.09L329.27 174.09L329.27 224.09L285.96 249.09L242.66 224.09L242.66 174.09zM329.27 224.09L372.57 249.09L372.57 299.09L329.27 324.09L285.96 299.09L285.96 249.09zM285.96 299.09L329.27 324.09L329.27 374.09L285.96 399.09L242.66 374.09L242.66 324.09zM329.27 374.09L372.57 399.09L372.57 449.09L329.27 474.09L285.96 449.09L285.96 399.09zM372.57 299.09L415.87 324.09L415.87 374.09L372.57 399.09L329.27 374.09L329.27 324.09zM415.87 374.09L459.18 399.09L459.18 449.09L415.87 474.09L372.57 449.09L372.57 399.09zM459.18 -0.91L502.48 24.09L502.48 74.09L459.18 99.09L415.87 74.09L415.87 24.09zM502.48 374.09L545.78 399.09L545.78 449.09L502.48 474.09L459.18 449.09L459.18 399.09zM589.08 224.09L632.38 249.09L632.38 299.09L589.08 324.09L545.78 299.09L545.78 249.09zM632.38 149.09L675.69 174.09L675.69 224.09L632.38 249.09L589.08 224.09L589.08 174.09zM675.69 224.09L718.99 249.09L718.99 299.09L675.69 324.09L632.38 299.09L632.38 249.09zM632.38 449.09L675.69 474.09L675.69 524.09L632.38 549.09L589.08 524.09L589.08 474.09zM848.9 74.09L892.2 99.09L892.2 149.09L848.9 174.09L805.6 149.09L805.6 99.09zM848.9 374.09L892.2 399.09L892.2 449.09L848.9 474.09L805.6 449.09L805.6 399.09zM848.9 524.09L892.2 549.09L892.2 599.09L848.9 624.09L805.6 599.09L805.6 549.09zM978.81 -0.91L1022.11 24.09L1022.11 74.09L978.81 99.09L935.5 74.09L935.5 24.09zM1022.11 74.09L1065.41 99.09L1065.41 149.09L1022.11 174.09L978.81 149.09L978.81 99.09zM1022.11 524.09L1065.41 549.09L1065.41 599.09L1022.11 624.09L978.81 599.09L978.81 549.09zM1108.71 374.09L1152.02 399.09L1152.02 449.09L1108.71 474.09L1065.41 449.09L1065.41 399.09zM1152.02 -0.91L1195.32 24.09L1195.32 74.09L1152.02 99.09L1108.71 74.09L1108.71 24.09zM1195.32 224.09L1238.62 249.09L1238.62 299.09L1195.32 324.09L1152.02 299.09L1152.02 249.09zM1325.23 299.09L1368.53 324.09L1368.53 374.09L1325.23 399.09L1281.92 374.09L1281.92 324.09zM1411.83 -0.91L1455.13 24.09L1455.13 74.09L1411.83 99.09L1368.53 74.09L1368.53 24.09zM1455.13 224.09L1498.44 249.09L1498.44 299.09L1455.13 324.09L1411.83 299.09L1411.83 249.09zM1455.13 524.09L1498.44 549.09L1498.44 599.09L1455.13 624.09L1411.83 599.09L1411.83 549.09z" stroke="rgba(6, 80, 156, 0.93)" stroke-width="2"></path></g><defs><mask id="SvgjsMask1106"><rect width="1440" height="560" fill="#ffffff"></rect></mask><linearGradient x1="15.28%" y1="-39.29%" x2="84.72%" y2="139.29%" gradientUnits="userSpaceOnUse" id="SvgjsLinearGradient1107"><stop stop-color="#0e2a47" offset="0"></stop><stop stop-color="rgba(189, 104, 104, 1)" offset="1"></stop></linearGradient></defs></svg>