<svg xmlns="http://www.w3.org/2000/svg" version="1.1" xmlns:xlink="http://www.w3.org/1999/xlink" xmlns:svgjs="http://svgjs.dev/svgjs" width="1440" height="560" preserveAspectRatio="none" viewBox="0 0 1440 560"><g mask="url(&quot;#SvgjsMask1761&quot;)" fill="none"><rect width="1440" height="560" x="0" y="0" fill="url(&quot;#SvgjsLinearGradient1762&quot;)"></rect><path d="M-95.51 385.03L-95.51 385.03" stroke="#132e65" stroke-width="1.5"></path><path d="M-95.51 385.03L-108.5 544.48" stroke="#132e65" stroke-width="1.5"></path><path d="M-95.51 385.03L65.59 360.46" stroke="#132e65" stroke-width="1.5"></path><path d="M-108.5 544.48L-108.5 544.48" stroke="#132e65" stroke-width="1.5"></path><path d="M-108.5 544.48L-56.03 678.62" stroke="#132e65" stroke-width="1.5"></path><path d="M-108.5 544.48L92.43 533.08" stroke="#132e65" stroke-width="1.5"></path><path d="M-108.5 544.48L75.9 679.78" stroke="#132e65" stroke-width="1.5"></path><path d="M-56.03 678.62L-56.03 678.62" stroke="#132e65" stroke-width="1.5"></path><path d="M-56.03 678.62L75.9 679.78" stroke="#132e65" stroke-width="1.5"></path><path d="M-56.03 678.62L92.43 533.08" stroke="#132e65" stroke-width="1.5"></path><path d="M-56.03 678.62L209.74 696.76" stroke="#132e65" stroke-width="1.5"></path><path d="M-56.03 678.62L-95.51 385.03" stroke="#132e65" stroke-width="1.5"></path><path d="M65.59 360.46L65.59 360.46" stroke="#132e65" stroke-width="1.5"></path><path d="M65.59 360.46L222.26 386.02" stroke="#132e65" stroke-width="1.5"></path><path d="M65.59 360.46L92.43 533.08" stroke="#132e65" stroke-width="1.5"></path><path d="M65.59 360.46L-108.5 544.48" stroke="#132e65" stroke-width="1.5"></path><path d="M65.59 360.46L236.08 558.26" stroke="#132e65" stroke-width="1.5"></path><path d="M92.43 533.08L92.43 533.08" stroke="#132e65" stroke-width="1.5"></path><path d="M92.43 533.08L236.08 558.26" stroke="#132e65" stroke-width="1.5"></path><path d="M92.43 533.08L75.9 679.78" stroke="#132e65" stroke-width="1.5"></path><path d="M92.43 533.08L222.26 386.02" stroke="#132e65" stroke-width="1.5"></path><path d="M92.43 533.08L209.74 696.76" stroke="#132e65" stroke-width="1.5"></path><path d="M75.9 679.78L75.9 679.78" stroke="#132e65" stroke-width="1.5"></path><path d="M75.9 679.78L209.74 696.76" stroke="#132e65" stroke-width="1.5"></path><path d="M222.26 386.02L222.26 386.02" stroke="#132e65" stroke-width="1.5"></path><path d="M222.26 386.02L345.62 389.22" stroke="#132e65" stroke-width="1.5"></path><path d="M222.26 386.02L236.08 558.26" stroke="#132e65" stroke-width="1.5"></path><path d="M222.26 386.02L531.13 370.92" stroke="#132e65" stroke-width="1.5"></path><path d="M222.26 386.02L209.74 696.76" stroke="#132e65" stroke-width="1.5"></path><path d="M236.08 558.26L236.08 558.26" stroke="#132e65" stroke-width="1.5"></path><path d="M236.08 558.26L209.74 696.76" stroke="#132e65" stroke-width="1.5"></path><path d="M236.08 558.26L75.9 679.78" stroke="#132e65" stroke-width="1.5"></path><path d="M236.08 558.26L345.62 389.22" stroke="#132e65" stroke-width="1.5"></path><path d="M209.74 696.76L209.74 696.76" stroke="#132e65" stroke-width="1.5"></path><path d="M209.74 696.76L530.2 704.19" stroke="#132e65" stroke-width="1.5"></path><path d="M345.62 389.22L345.62 389.22" stroke="#132e65" stroke-width="1.5"></path><path d="M345.62 389.22L531.13 370.92" stroke="#132e65" stroke-width="1.5"></path><path d="M531.13 370.92L531.13 370.92" stroke="#132e65" stroke-width="1.5"></path><path d="M531.13 370.92L672.32 366.77" stroke="#132e65" stroke-width="1.5"></path><path d="M530.2 704.19L530.2 704.19" stroke="#132e65" stroke-width="1.5"></path><path d="M530.2 704.19L702.45 639.01" stroke="#132e65" stroke-width="1.5"></path><path d="M530.2 704.19L668.61 517.71" stroke="#132e65" stroke-width="1.5"></path><path d="M530.2 704.19L792.6 651.63" stroke="#132e65" stroke-width="1.5"></path><path d="M530.2 704.19L236.08 558.26" stroke="#132e65" stroke-width="1.5"></path><path d="M530.2 704.19L531.13 370.92" stroke="#132e65" stroke-width="1.5"></path><path d="M684.1 230.5L684.1 230.5" stroke="#132e65" stroke-width="1.5"></path><path d="M684.1 230.5L672.32 366.77" stroke="#132e65" stroke-width="1.5"></path><path d="M684.1 230.5L840.57 249.32" stroke="#132e65" stroke-width="1.5"></path><path d="M684.1 230.5L531.13 370.92" stroke="#132e65" stroke-width="1.5"></path><path d="M672.32 366.77L672.32 366.77" stroke="#132e65" stroke-width="1.5"></path><path d="M672.32 366.77L668.61 517.71" stroke="#132e65" stroke-width="1.5"></path><path d="M672.32 366.77L840.57 249.32" stroke="#132e65" stroke-width="1.5"></path><path d="M672.32 366.77L832.82 559.32" stroke="#132e65" stroke-width="1.5"></path><path d="M668.61 517.71L668.61 517.71" stroke="#132e65" stroke-width="1.5"></path><path d="M668.61 517.71L702.45 639.01" stroke="#132e65" stroke-width="1.5"></path><path d="M702.45 639.01L702.45 639.01" stroke="#132e65" stroke-width="1.5"></path><path d="M702.45 639.01L792.6 651.63" stroke="#132e65" stroke-width="1.5"></path><path d="M840.57 249.32L840.57 249.32" stroke="#132e65" stroke-width="1.5"></path><path d="M840.57 249.32L951.08 262.36" stroke="#132e65" stroke-width="1.5"></path><path d="M840.57 249.32L965.74 399" stroke="#132e65" stroke-width="1.5"></path><path d="M832.82 559.32L832.82 559.32" stroke="#132e65" stroke-width="1.5"></path><path d="M832.82 559.32L792.6 651.63" stroke="#132e65" stroke-width="1.5"></path><path d="M832.82 559.32L702.45 639.01" stroke="#132e65" stroke-width="1.5"></path><path d="M832.82 559.32L668.61 517.71" stroke="#132e65" stroke-width="1.5"></path><path d="M832.82 559.32L1011.58 555.05" stroke="#132e65" stroke-width="1.5"></path><path d="M832.82 559.32L948.85 698.37" stroke="#132e65" stroke-width="1.5"></path><path d="M792.6 651.63L792.6 651.63" stroke="#132e65" stroke-width="1.5"></path><path d="M792.6 651.63L948.85 698.37" stroke="#132e65" stroke-width="1.5"></path><path d="M792.6 651.63L668.61 517.71" stroke="#132e65" stroke-width="1.5"></path><path d="M792.6 651.63L1011.58 555.05" stroke="#132e65" stroke-width="1.5"></path><path d="M1009.07 -74.29L1009.07 -74.29" stroke="#132e65" stroke-width="1.5"></path><path d="M1009.07 -74.29L1001.87 40.99" stroke="#132e65" stroke-width="1.5"></path><path d="M1009.07 -74.29L1124.82 -52.1" stroke="#132e65" stroke-width="1.5"></path><path d="M1009.07 -74.29L1122.88 96.99" stroke="#132e65" stroke-width="1.5"></path><path d="M1001.87 40.99L1001.87 40.99" stroke="#132e65" stroke-width="1.5"></path><path d="M1001.87 40.99L1122.88 96.99" stroke="#132e65" stroke-width="1.5"></path><path d="M951.08 262.36L951.08 262.36" stroke="#132e65" stroke-width="1.5"></path><path d="M951.08 262.36L965.74 399" stroke="#132e65" stroke-width="1.5"></path><path d="M951.08 262.36L1125.67 232.19" stroke="#132e65" stroke-width="1.5"></path><path d="M965.74 399L965.74 399" stroke="#132e65" stroke-width="1.5"></path><path d="M965.74 399L1109.6 409.94" stroke="#132e65" stroke-width="1.5"></path><path d="M965.74 399L1011.58 555.05" stroke="#132e65" stroke-width="1.5"></path><path d="M965.74 399L1109.78 515.01" stroke="#132e65" stroke-width="1.5"></path><path d="M1011.58 555.05L1011.58 555.05" stroke="#132e65" stroke-width="1.5"></path><path d="M1011.58 555.05L1109.78 515.01" stroke="#132e65" stroke-width="1.5"></path><path d="M1011.58 555.05L948.85 698.37" stroke="#132e65" stroke-width="1.5"></path><path d="M948.85 698.37L948.85 698.37" stroke="#132e65" stroke-width="1.5"></path><path d="M1124.82 -52.1L1124.82 -52.1" stroke="#132e65" stroke-width="1.5"></path><path d="M1124.82 -52.1L1122.88 96.99" stroke="#132e65" stroke-width="1.5"></path><path d="M1124.82 -52.1L1001.87 40.99" stroke="#132e65" stroke-width="1.5"></path><path d="M1124.82 -52.1L1303.49 -39.84" stroke="#132e65" stroke-width="1.5"></path><path d="M1124.82 -52.1L1249.97 104.24" stroke="#132e65" stroke-width="1.5"></path><path d="M1122.88 96.99L1122.88 96.99" stroke="#132e65" stroke-width="1.5"></path><path d="M1122.88 96.99L1249.97 104.24" stroke="#132e65" stroke-width="1.5"></path><path d="M1122.88 96.99L1125.67 232.19" stroke="#132e65" stroke-width="1.5"></path><path d="M1122.88 96.99L1288.79 214.43" stroke="#132e65" stroke-width="1.5"></path><path d="M1125.67 232.19L1125.67 232.19" stroke="#132e65" stroke-width="1.5"></path><path d="M1125.67 232.19L1288.79 214.43" stroke="#132e65" stroke-width="1.5"></path><path d="M1125.67 232.19L1249.97 104.24" stroke="#132e65" stroke-width="1.5"></path><path d="M1125.67 232.19L1109.6 409.94" stroke="#132e65" stroke-width="1.5"></path><path d="M1125.67 232.19L1275.69 372.41" stroke="#132e65" stroke-width="1.5"></path><path d="M1109.6 409.94L1109.6 409.94" stroke="#132e65" stroke-width="1.5"></path><path d="M1109.6 409.94L1109.78 515.01" stroke="#132e65" stroke-width="1.5"></path><path d="M1109.78 515.01L1109.78 515.01" stroke="#132e65" stroke-width="1.5"></path><path d="M1303.49 -39.84L1303.49 -39.84" stroke="#132e65" stroke-width="1.5"></path><path d="M1303.49 -39.84L1249.97 104.24" stroke="#132e65" stroke-width="1.5"></path><path d="M1303.49 -39.84L1462.14 -56.22" stroke="#132e65" stroke-width="1.5"></path><path d="M1303.49 -39.84L1448.83 40.04" stroke="#132e65" stroke-width="1.5"></path><path d="M1249.97 104.24L1249.97 104.24" stroke="#132e65" stroke-width="1.5"></path><path d="M1249.97 104.24L1288.79 214.43" stroke="#132e65" stroke-width="1.5"></path><path d="M1288.79 214.43L1288.79 214.43" stroke="#132e65" stroke-width="1.5"></path><path d="M1288.79 214.43L1411.22 235.78" stroke="#132e65" stroke-width="1.5"></path><path d="M1288.79 214.43L1275.69 372.41" stroke="#132e65" stroke-width="1.5"></path><path d="M1288.79 214.43L1427.1 392.42" stroke="#132e65" stroke-width="1.5"></path><path d="M1275.69 372.41L1275.69 372.41" stroke="#132e65" stroke-width="1.5"></path><path d="M1275.69 372.41L1427.1 392.42" stroke="#132e65" stroke-width="1.5"></path><path d="M1275.69 372.41L1109.6 409.94" stroke="#132e65" stroke-width="1.5"></path><path d="M1275.69 372.41L1411.22 235.78" stroke="#132e65" stroke-width="1.5"></path><path d="M1285.59 649.79L1285.59 649.79" stroke="#132e65" stroke-width="1.5"></path><path d="M1285.59 649.79L1437.23 666.51" stroke="#132e65" stroke-width="1.5"></path><path d="M1285.59 649.79L1109.78 515.01" stroke="#132e65" stroke-width="1.5"></path><path d="M1285.59 649.79L1459.61 511.44" stroke="#132e65" stroke-width="1.5"></path><path d="M1285.59 649.79L1275.69 372.41" stroke="#132e65" stroke-width="1.5"></path><path d="M1285.59 649.79L1011.58 555.05" stroke="#132e65" stroke-width="1.5"></path><path d="M1462.14 -56.22L1462.14 -56.22" stroke="#132e65" stroke-width="1.5"></path><path d="M1462.14 -56.22L1448.83 40.04" stroke="#132e65" stroke-width="1.5"></path><path d="M1462.14 -56.22L1594.92 -51.02" stroke="#132e65" stroke-width="1.5"></path><path d="M1448.83 40.04L1448.83 40.04" stroke="#132e65" stroke-width="1.5"></path><path d="M1448.83 40.04L1581.46 111.17" stroke="#132e65" stroke-width="1.5"></path><path d="M1448.83 40.04L1594.92 -51.02" stroke="#132e65" stroke-width="1.5"></path><path d="M1448.83 40.04L1411.22 235.78" stroke="#132e65" stroke-width="1.5"></path><path d="M1448.83 40.04L1249.97 104.24" stroke="#132e65" stroke-width="1.5"></path><path d="M1411.22 235.78L1411.22 235.78" stroke="#132e65" stroke-width="1.5"></path><path d="M1411.22 235.78L1427.1 392.42" stroke="#132e65" stroke-width="1.5"></path><path d="M1427.1 392.42L1427.1 392.42" stroke="#132e65" stroke-width="1.5"></path><path d="M1427.1 392.42L1459.61 511.44" stroke="#132e65" stroke-width="1.5"></path><path d="M1427.1 392.42L1561.39 410.35" stroke="#132e65" stroke-width="1.5"></path><path d="M1459.61 511.44L1459.61 511.44" stroke="#132e65" stroke-width="1.5"></path><path d="M1459.61 511.44L1554.93 534.66" stroke="#132e65" stroke-width="1.5"></path><path d="M1459.61 511.44L1561.39 410.35" stroke="#132e65" stroke-width="1.5"></path><path d="M1459.61 511.44L1437.23 666.51" stroke="#132e65" stroke-width="1.5"></path><path d="M1459.61 511.44L1591.55 680" stroke="#132e65" stroke-width="1.5"></path><path d="M1437.23 666.51L1437.23 666.51" stroke="#132e65" stroke-width="1.5"></path><path d="M1437.23 666.51L1591.55 680" stroke="#132e65" stroke-width="1.5"></path><path d="M1437.23 666.51L1554.93 534.66" stroke="#132e65" stroke-width="1.5"></path><path d="M1594.92 -51.02L1594.92 -51.02" stroke="#132e65" stroke-width="1.5"></path><path d="M1594.92 -51.02L1581.46 111.17" stroke="#132e65" stroke-width="1.5"></path><path d="M1594.92 -51.02L1303.49 -39.84" stroke="#132e65" stroke-width="1.5"></path><path d="M1581.46 111.17L1581.46 111.17" stroke="#132e65" stroke-width="1.5"></path><path d="M1581.46 111.17L1462.14 -56.22" stroke="#132e65" stroke-width="1.5"></path><path d="M1561.39 410.35L1561.39 410.35" stroke="#132e65" stroke-width="1.5"></path><path d="M1561.39 410.35L1554.93 534.66" stroke="#132e65" stroke-width="1.5"></path><path d="M1554.93 534.66L1554.93 534.66" stroke="#132e65" stroke-width="1.5"></path><path d="M1591.55 680L1591.55 680" stroke="#132e65" stroke-width="1.5"></path><path d="M1591.55 680L1554.93 534.66" stroke="#132e65" stroke-width="1.5"></path><circle r="5" cx="-95.51" cy="385.03" fill="#132e65"></circle><circle r="5" cx="-108.5" cy="544.48" fill="#132e65"></circle><circle r="5" cx="-56.03" cy="678.62" fill="#132e65"></circle><circle r="5" cx="65.59" cy="360.46" fill="#132e65"></circle><circle r="5" cx="92.43" cy="533.08" fill="#132e65"></circle><circle r="5" cx="75.9" cy="679.78" fill="#132e65"></circle><circle r="5" cx="222.26" cy="386.02" fill="#132e65"></circle><circle r="5" cx="236.08" cy="558.26" fill="#132e65"></circle><circle r="5" cx="209.74" cy="696.76" fill="#132e65"></circle><circle r="5" cx="345.62" cy="389.22" fill="#132e65"></circle><circle r="5" cx="531.13" cy="370.92" fill="#132e65"></circle><circle r="5" cx="530.2" cy="704.19" fill="#132e65"></circle><circle r="5" cx="684.1" cy="230.5" fill="#132e65"></circle><circle r="5" cx="672.32" cy="366.77" fill="#132e65"></circle><circle r="5" cx="668.61" cy="517.71" fill="#132e65"></circle><circle r="5" cx="702.45" cy="639.01" fill="#132e65"></circle><circle r="5" cx="840.57" cy="249.32" fill="#132e65"></circle><circle r="5" cx="832.82" cy="559.32" fill="#132e65"></circle><circle r="5" cx="792.6" cy="651.63" fill="#132e65"></circle><circle r="5" cx="1009.07" cy="-74.29" fill="#132e65"></circle><circle r="5" cx="1001.87" cy="40.99" fill="#132e65"></circle><circle r="5" cx="951.08" cy="262.36" fill="#132e65"></circle><circle r="5" cx="965.74" cy="399" fill="#132e65"></circle><circle r="5" cx="1011.58" cy="555.05" fill="#132e65"></circle><circle r="5" cx="948.85" cy="698.37" fill="#132e65"></circle><circle r="5" cx="1124.82" cy="-52.1" fill="#132e65"></circle><circle r="5" cx="1122.88" cy="96.99" fill="#132e65"></circle><circle r="5" cx="1125.67" cy="232.19" fill="#132e65"></circle><circle r="5" cx="1109.6" cy="409.94" fill="#132e65"></circle><circle r="5" cx="1109.78" cy="515.01" fill="#132e65"></circle><circle r="5" cx="1303.49" cy="-39.84" fill="#132e65"></circle><circle r="5" cx="1249.97" cy="104.24" fill="#132e65"></circle><circle r="5" cx="1288.79" cy="214.43" fill="#132e65"></circle><circle r="5" cx="1275.69" cy="372.41" fill="#132e65"></circle><circle r="5" cx="1285.59" cy="649.79" fill="#132e65"></circle><circle r="5" cx="1462.14" cy="-56.22" fill="#132e65"></circle><circle r="5" cx="1448.83" cy="40.04" fill="#132e65"></circle><circle r="5" cx="1411.22" cy="235.78" fill="#132e65"></circle><circle r="5" cx="1427.1" cy="392.42" fill="#132e65"></circle><circle r="5" cx="1459.61" cy="511.44" fill="#132e65"></circle><circle r="5" cx="1437.23" cy="666.51" fill="#132e65"></circle><circle r="5" cx="1594.92" cy="-51.02" fill="#132e65"></circle><circle r="5" cx="1581.46" cy="111.17" fill="#132e65"></circle><circle r="5" cx="1561.39" cy="410.35" fill="#132e65"></circle><circle r="5" cx="1554.93" cy="534.66" fill="#132e65"></circle><circle r="5" cx="1591.55" cy="680" fill="#132e65"></circle><path d="M367.55 672.41L367.55 672.41" stroke="hsl(224.89999999999998, 96.6%, 30.3%)" stroke-width="1.5"></path><path d="M367.55 672.41L339.15 551.92" stroke="hsl(224.89999999999998, 96.6%, 30.3%)" stroke-width="1.5"></path><path d="M367.55 672.41L224.32 708.03" stroke="hsl(224.89999999999998, 96.6%, 30.3%)" stroke-width="1.5"></path><path d="M367.55 672.41L521.39 675.68" stroke="hsl(224.89999999999998, 96.6%, 30.3%)" stroke-width="1.5"></path><path d="M367.55 672.41L503.69 549.56" stroke="hsl(224.89999999999998, 96.6%, 30.3%)" stroke-width="1.5"></path><path d="M367.55 672.41L198.56 497.56" stroke="hsl(224.89999999999998, 96.6%, 30.3%)" stroke-width="1.5"></path><path d="M367.55 672.41L491.62 409.17" stroke="hsl(224.89999999999998, 96.6%, 30.3%)" stroke-width="1.5"></path><path d="M491.62 409.17L491.62 409.17" stroke="hsl(224.89999999999998, 96.6%, 30.3%)" stroke-width="1.5"></path><path d="M491.62 409.17L503.69 549.56" stroke="hsl(224.89999999999998, 96.6%, 30.3%)" stroke-width="1.5"></path><path d="M491.62 409.17L646.79 382.16" stroke="hsl(224.89999999999998, 96.6%, 30.3%)" stroke-width="1.5"></path><path d="M491.62 409.17L660.78 531.01" stroke="hsl(224.89999999999998, 96.6%, 30.3%)" stroke-width="1.5"></path><path d="M491.62 409.17L339.15 551.92" stroke="hsl(224.89999999999998, 96.6%, 30.3%)" stroke-width="1.5"></path><path d="M521.39 675.68L521.39 675.68" stroke="hsl(224.89999999999998, 96.6%, 30.3%)" stroke-width="1.5"></path><path d="M521.39 675.68L503.69 549.56" stroke="hsl(224.89999999999998, 96.6%, 30.3%)" stroke-width="1.5"></path><path d="M521.39 675.68L684.38 710.81" stroke="hsl(224.89999999999998, 96.6%, 30.3%)" stroke-width="1.5"></path><path d="M521.39 675.68L660.78 531.01" stroke="hsl(224.89999999999998, 96.6%, 30.3%)" stroke-width="1.5"></path><path d="M521.39 675.68L339.15 551.92" stroke="hsl(224.89999999999998, 96.6%, 30.3%)" stroke-width="1.5"></path><path d="M521.39 675.68L491.62 409.17" stroke="hsl(224.89999999999998, 96.6%, 30.3%)" stroke-width="1.5"></path><path d="M1101.99 256.64L1101.99 256.64" stroke="hsl(224.89999999999998, 96.6%, 30.3%)" stroke-width="1.5"></path><path d="M1101.99 256.64L1160.33 374.09" stroke="hsl(224.89999999999998, 96.6%, 30.3%)" stroke-width="1.5"></path><path d="M1101.99 256.64L1257.39 196.49" stroke="hsl(224.89999999999998, 96.6%, 30.3%)" stroke-width="1.5"></path><path d="M1101.99 256.64L996.83 403.24" stroke="hsl(224.89999999999998, 96.6%, 30.3%)" stroke-width="1.5"></path><path d="M1101.99 256.64L1280.1 390.45" stroke="hsl(224.89999999999998, 96.6%, 30.3%)" stroke-width="1.5"></path><path d="M1101.99 256.64L1259.83 79.31" stroke="hsl(224.89999999999998, 96.6%, 30.3%)" stroke-width="1.5"></path><path d="M1156.29 488.6L1156.29 488.6" stroke="hsl(224.89999999999998, 96.6%, 30.3%)" stroke-width="1.5"></path><path d="M1156.29 488.6L1160.33 374.09" stroke="hsl(224.89999999999998, 96.6%, 30.3%)" stroke-width="1.5"></path><path d="M1156.29 488.6L1287.68 506.23" stroke="hsl(224.89999999999998, 96.6%, 30.3%)" stroke-width="1.5"></path><path d="M1156.29 488.6L1280.1 390.45" stroke="hsl(224.89999999999998, 96.6%, 30.3%)" stroke-width="1.5"></path><path d="M1156.29 488.6L996.83 403.24" stroke="hsl(224.89999999999998, 96.6%, 30.3%)" stroke-width="1.5"></path><path d="M1289.95 -85.75L1289.95 -85.75" stroke="hsl(224.89999999999998, 96.6%, 30.3%)" stroke-width="1.5"></path><path d="M1289.95 -85.75L1399.75 -60.08" stroke="hsl(224.89999999999998, 96.6%, 30.3%)" stroke-width="1.5"></path><path d="M1289.95 -85.75L1259.83 79.31" stroke="hsl(224.89999999999998, 96.6%, 30.3%)" stroke-width="1.5"></path><path d="M1289.95 -85.75L1449.2 56.17" stroke="hsl(224.89999999999998, 96.6%, 30.3%)" stroke-width="1.5"></path><path d="M1289.95 -85.75L1565.7 -89.25" stroke="hsl(224.89999999999998, 96.6%, 30.3%)" stroke-width="1.5"></path><path d="M1289.95 -85.75L1257.39 196.49" stroke="hsl(224.89999999999998, 96.6%, 30.3%)" stroke-width="1.5"></path><path d="M1257.39 196.49L1257.39 196.49" stroke="hsl(224.89999999999998, 96.6%, 30.3%)" stroke-width="1.5"></path><path d="M1257.39 196.49L1259.83 79.31" stroke="hsl(224.89999999999998, 96.6%, 30.3%)" stroke-width="1.5"></path><path d="M1537.67 95.85L1537.67 95.85" stroke="hsl(224.89999999999998, 96.6%, 30.3%)" stroke-width="1.5"></path><path d="M1537.67 95.85L1449.2 56.17" stroke="hsl(224.89999999999998, 96.6%, 30.3%)" stroke-width="1.5"></path><path d="M1537.67 95.85L1589.82 195.74" stroke="hsl(224.89999999999998, 96.6%, 30.3%)" stroke-width="1.5"></path><path d="M1537.67 95.85L1565.7 -89.25" stroke="hsl(224.89999999999998, 96.6%, 30.3%)" stroke-width="1.5"></path><path d="M1537.67 95.85L1437.05 260.86" stroke="hsl(224.89999999999998, 96.6%, 30.3%)" stroke-width="1.5"></path><path d="M1537.67 95.85L1399.75 -60.08" stroke="hsl(224.89999999999998, 96.6%, 30.3%)" stroke-width="1.5"></path><path d="M-49.68 546.22L-49.68 546.22" stroke="hsl(224.89999999999998, 96.6%, 30.3%)" stroke-width="1.5"></path><path d="M-49.68 546.22L50.09 528.03" stroke="hsl(224.89999999999998, 96.6%, 30.3%)" stroke-width="1.5"></path><path d="M-49.68 546.22L-101.95 685.5" stroke="hsl(224.89999999999998, 96.6%, 30.3%)" stroke-width="1.5"></path><path d="M-49.68 546.22L69.63 706.24" stroke="hsl(224.89999999999998, 96.6%, 30.3%)" stroke-width="1.5"></path><path d="M-101.95 685.5L-101.95 685.5" stroke="hsl(224.89999999999998, 96.6%, 30.3%)" stroke-width="1.5"></path><path d="M-101.95 685.5L69.63 706.24" stroke="hsl(224.89999999999998, 96.6%, 30.3%)" stroke-width="1.5"></path><path d="M-101.95 685.5L50.09 528.03" stroke="hsl(224.89999999999998, 96.6%, 30.3%)" stroke-width="1.5"></path><path d="M-101.95 685.5L224.32 708.03" stroke="hsl(224.89999999999998, 96.6%, 30.3%)" stroke-width="1.5"></path><path d="M-101.95 685.5L198.56 497.56" stroke="hsl(224.89999999999998, 96.6%, 30.3%)" stroke-width="1.5"></path><path d="M-101.95 685.5L339.15 551.92" stroke="hsl(224.89999999999998, 96.6%, 30.3%)" stroke-width="1.5"></path><path d="M50.09 528.03L50.09 528.03" stroke="hsl(224.89999999999998, 96.6%, 30.3%)" stroke-width="1.5"></path><path d="M50.09 528.03L198.56 497.56" stroke="hsl(224.89999999999998, 96.6%, 30.3%)" stroke-width="1.5"></path><path d="M50.09 528.03L69.63 706.24" stroke="hsl(224.89999999999998, 96.6%, 30.3%)" stroke-width="1.5"></path><path d="M69.63 706.24L69.63 706.24" stroke="hsl(224.89999999999998, 96.6%, 30.3%)" stroke-width="1.5"></path><path d="M69.63 706.24L224.32 708.03" stroke="hsl(224.89999999999998, 96.6%, 30.3%)" stroke-width="1.5"></path><path d="M198.56 497.56L198.56 497.56" stroke="hsl(224.89999999999998, 96.6%, 30.3%)" stroke-width="1.5"></path><path d="M198.56 497.56L339.15 551.92" stroke="hsl(224.89999999999998, 96.6%, 30.3%)" stroke-width="1.5"></path><path d="M198.56 497.56L224.32 708.03" stroke="hsl(224.89999999999998, 96.6%, 30.3%)" stroke-width="1.5"></path><path d="M198.56 497.56L69.63 706.24" stroke="hsl(224.89999999999998, 96.6%, 30.3%)" stroke-width="1.5"></path><path d="M224.32 708.03L224.32 708.03" stroke="hsl(224.89999999999998, 96.6%, 30.3%)" stroke-width="1.5"></path><path d="M224.32 708.03L339.15 551.92" stroke="hsl(224.89999999999998, 96.6%, 30.3%)" stroke-width="1.5"></path><path d="M339.15 551.92L339.15 551.92" stroke="hsl(224.89999999999998, 96.6%, 30.3%)" stroke-width="1.5"></path><path d="M339.15 551.92L503.69 549.56" stroke="hsl(224.89999999999998, 96.6%, 30.3%)" stroke-width="1.5"></path><path d="M503.69 549.56L503.69 549.56" stroke="hsl(224.89999999999998, 96.6%, 30.3%)" stroke-width="1.5"></path><path d="M503.69 549.56L660.78 531.01" stroke="hsl(224.89999999999998, 96.6%, 30.3%)" stroke-width="1.5"></path><path d="M503.69 549.56L646.79 382.16" stroke="hsl(224.89999999999998, 96.6%, 30.3%)" stroke-width="1.5"></path><path d="M646.79 382.16L646.79 382.16" stroke="hsl(224.89999999999998, 96.6%, 30.3%)" stroke-width="1.5"></path><path d="M646.79 382.16L660.78 531.01" stroke="hsl(224.89999999999998, 96.6%, 30.3%)" stroke-width="1.5"></path><path d="M646.79 382.16L844.43 351.44" stroke="hsl(224.89999999999998, 96.6%, 30.3%)" stroke-width="1.5"></path><path d="M646.79 382.16L840.02 532.67" stroke="hsl(224.89999999999998, 96.6%, 30.3%)" stroke-width="1.5"></path><path d="M646.79 382.16L521.39 675.68" stroke="hsl(224.89999999999998, 96.6%, 30.3%)" stroke-width="1.5"></path><path d="M660.78 531.01L660.78 531.01" stroke="hsl(224.89999999999998, 96.6%, 30.3%)" stroke-width="1.5"></path><path d="M660.78 531.01L840.02 532.67" stroke="hsl(224.89999999999998, 96.6%, 30.3%)" stroke-width="1.5"></path><path d="M660.78 531.01L684.38 710.81" stroke="hsl(224.89999999999998, 96.6%, 30.3%)" stroke-width="1.5"></path><path d="M684.38 710.81L684.38 710.81" stroke="hsl(224.89999999999998, 96.6%, 30.3%)" stroke-width="1.5"></path><path d="M684.38 710.81L817.52 705.05" stroke="hsl(224.89999999999998, 96.6%, 30.3%)" stroke-width="1.5"></path><path d="M844.43 351.44L844.43 351.44" stroke="hsl(224.89999999999998, 96.6%, 30.3%)" stroke-width="1.5"></path><path d="M844.43 351.44L996.83 403.24" stroke="hsl(224.89999999999998, 96.6%, 30.3%)" stroke-width="1.5"></path><path d="M844.43 351.44L840.02 532.67" stroke="hsl(224.89999999999998, 96.6%, 30.3%)" stroke-width="1.5"></path><path d="M840.02 532.67L840.02 532.67" stroke="hsl(224.89999999999998, 96.6%, 30.3%)" stroke-width="1.5"></path><path d="M840.02 532.67L970.07 526.43" stroke="hsl(224.89999999999998, 96.6%, 30.3%)" stroke-width="1.5"></path><path d="M840.02 532.67L817.52 705.05" stroke="hsl(224.89999999999998, 96.6%, 30.3%)" stroke-width="1.5"></path><path d="M817.52 705.05L817.52 705.05" stroke="hsl(224.89999999999998, 96.6%, 30.3%)" stroke-width="1.5"></path><path d="M817.52 705.05L952.83 666.52" stroke="hsl(224.89999999999998, 96.6%, 30.3%)" stroke-width="1.5"></path><path d="M996.83 403.24L996.83 403.24" stroke="hsl(224.89999999999998, 96.6%, 30.3%)" stroke-width="1.5"></path><path d="M996.83 403.24L970.07 526.43" stroke="hsl(224.89999999999998, 96.6%, 30.3%)" stroke-width="1.5"></path><path d="M996.83 403.24L1160.33 374.09" stroke="hsl(224.89999999999998, 96.6%, 30.3%)" stroke-width="1.5"></path><path d="M970.07 526.43L970.07 526.43" stroke="hsl(224.89999999999998, 96.6%, 30.3%)" stroke-width="1.5"></path><path d="M970.07 526.43L952.83 666.52" stroke="hsl(224.89999999999998, 96.6%, 30.3%)" stroke-width="1.5"></path><path d="M970.07 526.43L1156.29 488.6" stroke="hsl(224.89999999999998, 96.6%, 30.3%)" stroke-width="1.5"></path><path d="M952.83 666.52L952.83 666.52" stroke="hsl(224.89999999999998, 96.6%, 30.3%)" stroke-width="1.5"></path><path d="M952.83 666.52L840.02 532.67" stroke="hsl(224.89999999999998, 96.6%, 30.3%)" stroke-width="1.5"></path><path d="M952.83 666.52L1146.71 705.14" stroke="hsl(224.89999999999998, 96.6%, 30.3%)" stroke-width="1.5"></path><path d="M952.83 666.52L996.83 403.24" stroke="hsl(224.89999999999998, 96.6%, 30.3%)" stroke-width="1.5"></path><path d="M1160.33 374.09L1160.33 374.09" stroke="hsl(224.89999999999998, 96.6%, 30.3%)" stroke-width="1.5"></path><path d="M1160.33 374.09L1280.1 390.45" stroke="hsl(224.89999999999998, 96.6%, 30.3%)" stroke-width="1.5"></path><path d="M1146.71 705.14L1146.71 705.14" stroke="hsl(224.89999999999998, 96.6%, 30.3%)" stroke-width="1.5"></path><path d="M1146.71 705.14L1278.68 674.79" stroke="hsl(224.89999999999998, 96.6%, 30.3%)" stroke-width="1.5"></path><path d="M1146.71 705.14L1156.29 488.6" stroke="hsl(224.89999999999998, 96.6%, 30.3%)" stroke-width="1.5"></path><path d="M1146.71 705.14L1287.68 506.23" stroke="hsl(224.89999999999998, 96.6%, 30.3%)" stroke-width="1.5"></path><path d="M1146.71 705.14L970.07 526.43" stroke="hsl(224.89999999999998, 96.6%, 30.3%)" stroke-width="1.5"></path><path d="M1259.83 79.31L1259.83 79.31" stroke="hsl(224.89999999999998, 96.6%, 30.3%)" stroke-width="1.5"></path><path d="M1259.83 79.31L1449.2 56.17" stroke="hsl(224.89999999999998, 96.6%, 30.3%)" stroke-width="1.5"></path><path d="M1280.1 390.45L1280.1 390.45" stroke="hsl(224.89999999999998, 96.6%, 30.3%)" stroke-width="1.5"></path><path d="M1280.1 390.45L1287.68 506.23" stroke="hsl(224.89999999999998, 96.6%, 30.3%)" stroke-width="1.5"></path><path d="M1287.68 506.23L1287.68 506.23" stroke="hsl(224.89999999999998, 96.6%, 30.3%)" stroke-width="1.5"></path><path d="M1287.68 506.23L1395.25 502.94" stroke="hsl(224.89999999999998, 96.6%, 30.3%)" stroke-width="1.5"></path><path d="M1278.68 674.79L1278.68 674.79" stroke="hsl(224.89999999999998, 96.6%, 30.3%)" stroke-width="1.5"></path><path d="M1278.68 674.79L1287.68 506.23" stroke="hsl(224.89999999999998, 96.6%, 30.3%)" stroke-width="1.5"></path><path d="M1278.68 674.79L1447.37 657.63" stroke="hsl(224.89999999999998, 96.6%, 30.3%)" stroke-width="1.5"></path><path d="M1278.68 674.79L1395.25 502.94" stroke="hsl(224.89999999999998, 96.6%, 30.3%)" stroke-width="1.5"></path><path d="M1278.68 674.79L1156.29 488.6" stroke="hsl(224.89999999999998, 96.6%, 30.3%)" stroke-width="1.5"></path><path d="M1278.68 674.79L1562.29 678.27" stroke="hsl(224.89999999999998, 96.6%, 30.3%)" stroke-width="1.5"></path><path d="M1399.75 -60.08L1399.75 -60.08" stroke="hsl(224.89999999999998, 96.6%, 30.3%)" stroke-width="1.5"></path><path d="M1399.75 -60.08L1449.2 56.17" stroke="hsl(224.89999999999998, 96.6%, 30.3%)" stroke-width="1.5"></path><path d="M1399.75 -60.08L1565.7 -89.25" stroke="hsl(224.89999999999998, 96.6%, 30.3%)" stroke-width="1.5"></path><path d="M1399.75 -60.08L1259.83 79.31" stroke="hsl(224.89999999999998, 96.6%, 30.3%)" stroke-width="1.5"></path><path d="M1449.2 56.17L1449.2 56.17" stroke="hsl(224.89999999999998, 96.6%, 30.3%)" stroke-width="1.5"></path><path d="M1437.05 260.86L1437.05 260.86" stroke="hsl(224.89999999999998, 96.6%, 30.3%)" stroke-width="1.5"></path><path d="M1437.05 260.86L1458.92 347.39" stroke="hsl(224.89999999999998, 96.6%, 30.3%)" stroke-width="1.5"></path><path d="M1437.05 260.86L1589.82 195.74" stroke="hsl(224.89999999999998, 96.6%, 30.3%)" stroke-width="1.5"></path><path d="M1437.05 260.86L1257.39 196.49" stroke="hsl(224.89999999999998, 96.6%, 30.3%)" stroke-width="1.5"></path><path d="M1437.05 260.86L1280.1 390.45" stroke="hsl(224.89999999999998, 96.6%, 30.3%)" stroke-width="1.5"></path><path d="M1458.92 347.39L1458.92 347.39" stroke="hsl(224.89999999999998, 96.6%, 30.3%)" stroke-width="1.5"></path><path d="M1458.92 347.39L1395.25 502.94" stroke="hsl(224.89999999999998, 96.6%, 30.3%)" stroke-width="1.5"></path><path d="M1458.92 347.39L1280.1 390.45" stroke="hsl(224.89999999999998, 96.6%, 30.3%)" stroke-width="1.5"></path><path d="M1458.92 347.39L1589.82 195.74" stroke="hsl(224.89999999999998, 96.6%, 30.3%)" stroke-width="1.5"></path><path d="M1458.92 347.39L1604.55 491.81" stroke="hsl(224.89999999999998, 96.6%, 30.3%)" stroke-width="1.5"></path><path d="M1395.25 502.94L1395.25 502.94" stroke="hsl(224.89999999999998, 96.6%, 30.3%)" stroke-width="1.5"></path><path d="M1395.25 502.94L1280.1 390.45" stroke="hsl(224.89999999999998, 96.6%, 30.3%)" stroke-width="1.5"></path><path d="M1395.25 502.94L1447.37 657.63" stroke="hsl(224.89999999999998, 96.6%, 30.3%)" stroke-width="1.5"></path><path d="M1395.25 502.94L1604.55 491.81" stroke="hsl(224.89999999999998, 96.6%, 30.3%)" stroke-width="1.5"></path><path d="M1447.37 657.63L1447.37 657.63" stroke="hsl(224.89999999999998, 96.6%, 30.3%)" stroke-width="1.5"></path><path d="M1447.37 657.63L1562.29 678.27" stroke="hsl(224.89999999999998, 96.6%, 30.3%)" stroke-width="1.5"></path><path d="M1447.37 657.63L1287.68 506.23" stroke="hsl(224.89999999999998, 96.6%, 30.3%)" stroke-width="1.5"></path><path d="M1565.7 -89.25L1565.7 -89.25" stroke="hsl(224.89999999999998, 96.6%, 30.3%)" stroke-width="1.5"></path><path d="M1565.7 -89.25L1449.2 56.17" stroke="hsl(224.89999999999998, 96.6%, 30.3%)" stroke-width="1.5"></path><path d="M1589.82 195.74L1589.82 195.74" stroke="hsl(224.89999999999998, 96.6%, 30.3%)" stroke-width="1.5"></path><path d="M1589.82 195.74L1449.2 56.17" stroke="hsl(224.89999999999998, 96.6%, 30.3%)" stroke-width="1.5"></path><path d="M1589.82 195.74L1565.7 -89.25" stroke="hsl(224.89999999999998, 96.6%, 30.3%)" stroke-width="1.5"></path><path d="M1604.55 491.81L1604.55 491.81" stroke="hsl(224.89999999999998, 96.6%, 30.3%)" stroke-width="1.5"></path><path d="M1604.55 491.81L1562.29 678.27" stroke="hsl(224.89999999999998, 96.6%, 30.3%)" stroke-width="1.5"></path><path d="M1604.55 491.81L1447.37 657.63" stroke="hsl(224.89999999999998, 96.6%, 30.3%)" stroke-width="1.5"></path><path d="M1562.29 678.27L1562.29 678.27" stroke="hsl(224.89999999999998, 96.6%, 30.3%)" stroke-width="1.5"></path><path d="M1562.29 678.27L1395.25 502.94" stroke="hsl(224.89999999999998, 96.6%, 30.3%)" stroke-width="1.5"></path><circle r="25" cx="367.55" cy="672.41" fill="url(&quot;#SvgjsRadialGradient1763&quot;)"></circle><circle r="25" cx="491.62" cy="409.17" fill="url(&quot;#SvgjsRadialGradient1763&quot;)"></circle><circle r="25" cx="521.39" cy="675.68" fill="url(&quot;#SvgjsRadialGradient1763&quot;)"></circle><circle r="25" cx="1101.99" cy="256.64" fill="url(&quot;#SvgjsRadialGradient1763&quot;)"></circle><circle r="25" cx="1156.29" cy="488.6" fill="url(&quot;#SvgjsRadialGradient1763&quot;)"></circle><circle r="25" cx="1289.95" cy="-85.75" fill="url(&quot;#SvgjsRadialGradient1763&quot;)"></circle><circle r="25" cx="1257.39" cy="196.49" fill="url(&quot;#SvgjsRadialGradient1763&quot;)"></circle><circle r="25" cx="1537.67" cy="95.85" fill="url(&quot;#SvgjsRadialGradient1763&quot;)"></circle><circle r="5" cx="-49.68" cy="546.22" fill="#818fba"></circle><circle r="5" cx="-101.95" cy="685.5" fill="#818fba"></circle><circle r="5" cx="50.09" cy="528.03" fill="#818fba"></circle><circle r="5" cx="69.63" cy="706.24" fill="#818fba"></circle><circle r="5" cx="198.56" cy="497.56" fill="#818fba"></circle><circle r="5" cx="224.32" cy="708.03" fill="#818fba"></circle><circle r="5" cx="339.15" cy="551.92" fill="#818fba"></circle><circle r="5" cx="503.69" cy="549.56" fill="#818fba"></circle><circle r="5" cx="646.79" cy="382.16" fill="#818fba"></circle><circle r="5" cx="660.78" cy="531.01" fill="#818fba"></circle><circle r="5" cx="684.38" cy="710.81" fill="#818fba"></circle><circle r="5" cx="844.43" cy="351.44" fill="#818fba"></circle><circle r="5" cx="840.02" cy="532.67" fill="#818fba"></circle><circle r="5" cx="817.52" cy="705.05" fill="#818fba"></circle><circle r="5" cx="996.83" cy="403.24" fill="#818fba"></circle><circle r="5" cx="970.07" cy="526.43" fill="#818fba"></circle><circle r="5" cx="952.83" cy="666.52" fill="#818fba"></circle><circle r="5" cx="1160.33" cy="374.09" fill="#818fba"></circle><circle r="5" cx="1146.71" cy="705.14" fill="#818fba"></circle><circle r="5" cx="1259.83" cy="79.31" fill="#818fba"></circle><circle r="5" cx="1280.1" cy="390.45" fill="#818fba"></circle><circle r="5" cx="1287.68" cy="506.23" fill="#818fba"></circle><circle r="5" cx="1278.68" cy="674.79" fill="#818fba"></circle><circle r="5" cx="1399.75" cy="-60.08" fill="#818fba"></circle><circle r="5" cx="1449.2" cy="56.17" fill="#818fba"></circle><circle r="5" cx="1437.05" cy="260.86" fill="#818fba"></circle><circle r="5" cx="1458.92" cy="347.39" fill="#818fba"></circle><circle r="5" cx="1395.25" cy="502.94" fill="#818fba"></circle><circle r="5" cx="1447.37" cy="657.63" fill="#818fba"></circle><circle r="5" cx="1565.7" cy="-89.25" fill="#818fba"></circle><circle r="5" cx="1589.82" cy="195.74" fill="#818fba"></circle><circle r="5" cx="1604.55" cy="491.81" fill="#818fba"></circle><circle r="5" cx="1562.29" cy="678.27" fill="#818fba"></circle></g><defs><mask id="SvgjsMask1761"><rect width="1440" height="560" fill="#ffffff"></rect></mask><linearGradient x1="0%" y1="50%" x2="100%" y2="50%" gradientUnits="userSpaceOnUse" id="SvgjsLinearGradient1762"><stop stop-color="rgba(250, 253, 255, 1)" offset="0"></stop><stop stop-color="rgba(249, 249, 249, 1)" offset="0.89"></stop><stop stop-color="rgba(249, 249, 249, 1)" offset="1"></stop></linearGradient><radialGradient id="SvgjsRadialGradient1763"><stop stop-color="#ffffff" offset="0.1"></stop><stop stop-color="rgba(2, 31, 117, 1)" offset="0.2"></stop><stop stop-color="rgba(2, 31, 117, 0)" offset="1"></stop></radialGradient></defs></svg>